<?xml version="1.0" standalone="no"?>
<!DOCTYPE svg PUBLIC "-//W3C//DTD SVG 20010904//EN"
 "http://www.w3.org/TR/2001/REC-SVG-20010904/DTD/svg10.dtd">
<svg version="1.0" xmlns="http://www.w3.org/2000/svg"
 width="1583.000000pt" height="376.000000pt" viewBox="0 0 1583.000000 376.000000"
 preserveAspectRatio="xMidYMid meet">
<metadata>
Created by potrace 1.15, written by Peter Selinger 2001-2017
</metadata>
<g transform="translate(0.000000,376.000000) scale(0.100000,-0.100000)"
fill="#000000" stroke="none">
<path d="M5422 3698 c-44 -37 -65 -75 -222 -418 -109 -238 -157 -308 -201
-295 -13 4 -27 10 -32 14 -13 13 -27 122 -27 216 0 134 -33 237 -83 264 -20
11 -29 11 -53 -2 -42 -22 -68 -53 -107 -132 -72 -146 -96 -263 -97 -475 l0
-126 -37 -13 c-108 -38 -290 -186 -370 -301 -49 -71 -90 -164 -115 -258 -28
-111 -30 -301 -5 -406 17 -69 80 -225 95 -235 4 -4 19 -24 32 -45 56 -93 221
-235 320 -277 14 -5 43 -19 65 -29 91 -43 162 -55 340 -55 133 0 184 4 235 18
60 17 155 55 190 77 8 5 29 17 45 26 99 55 197 152 276 273 27 41 38 51 54 46
101 -31 360 -28 525 5 153 31 213 56 280 117 33 29 40 42 40 73 0 33 -7 44
-45 78 -56 50 -93 59 -281 72 -227 16 -284 36 -284 102 0 39 113 151 255 251
154 108 151 106 229 170 39 32 89 72 111 90 202 164 283 273 260 348 -15 48
-122 63 -226 33 -66 -19 -278 -121 -374 -180 -91 -56 -185 -83 -220 -64 -14 7
-25 17 -25 22 0 12 110 232 119 238 4 3 29 39 56 80 26 41 54 84 61 95 51 73
87 132 125 201 39 71 44 86 44 146 0 57 -4 71 -23 90 -32 32 -92 28 -165 -11
-82 -44 -114 -74 -287 -260 -213 -230 -265 -283 -293 -297 -66 -35 -82 7 -62
164 8 64 19 135 25 157 5 22 16 101 24 175 23 213 4 270 -89 270 -33 0 -52 -7
-83 -32z m-267 -923 c33 -9 74 -22 90 -30 17 -7 46 -20 65 -29 177 -78 341
-248 420 -434 83 -195 84 -430 3 -636 l-27 -68 -51 5 c-58 7 -272 73 -298 92
-17 12 -16 16 12 63 115 196 81 458 -82 623 -144 145 -360 203 -556 149 -40
-12 -75 -19 -76 -18 -9 12 -36 116 -45 172 -7 46 -7 72 -1 80 6 7 46 20 88 29
43 9 87 19 98 21 44 11 302 -3 360 -19z m-461 -393 c116 -286 297 -501 546
-647 89 -52 85 -48 66 -78 -42 -63 -194 -154 -294 -176 -67 -14 -195 -14 -264
0 -49 10 -171 65 -206 93 -72 57 -172 179 -172 210 0 6 -7 24 -15 40 -8 16
-20 60 -27 98 -26 158 42 342 168 460 26 23 141 97 154 97 3 1 23 -43 44 -97z"/>
<path d="M1326 1937 l-26 -26 0 -396 0 -396 26 -26 c20 -20 31 -24 57 -19 18
3 38 14 45 23 9 13 12 113 12 418 0 305 -3 405 -12 418 -7 9 -27 20 -45 23
-26 5 -37 1 -57 -19z"/>
<path d="M1575 1934 l-25 -27 0 -394 0 -394 25 -24 c59 -60 125 -11 125 92 0
42 5 52 42 90 23 24 45 43 48 43 4 0 31 -30 61 -67 126 -157 152 -183 181
-183 39 0 68 27 68 64 0 31 -33 78 -178 255 l-28 34 98 96 c54 52 101 105 104
117 7 29 -20 70 -52 78 -37 10 -66 -12 -209 -149 l-130 -124 -5 232 c-3 127
-9 240 -14 250 -9 19 -45 37 -72 37 -8 0 -26 -12 -39 -26z"/>
<path d="M62 1887 c-28 -30 -28 -58 1 -85 21 -20 34 -22 140 -22 l116 0 3
-336 3 -336 24 -19 c28 -23 59 -24 89 -3 22 15 22 15 22 355 l0 339 128 0
c144 0 162 8 162 67 0 62 -3 63 -352 63 l-315 0 -21 -23z"/>
<path d="M880 1714 c-37 -7 -92 -26 -104 -35 -115 -87 -156 -164 -156 -289 0
-105 34 -186 105 -248 62 -55 128 -75 236 -74 104 0 154 14 203 56 41 35 59
94 36 121 -18 22 -82 19 -113 -5 -98 -77 -246 -59 -296 37 -27 53 -27 53 185
53 255 0 276 10 260 129 -7 54 -45 132 -82 172 -56 59 -188 99 -274 83z m123
-135 c42 -23 77 -70 77 -103 0 -14 -21 -16 -154 -16 l-155 0 10 32 c9 32 36
64 74 86 26 15 120 15 148 1z"/>
<path d="M2340 1707 c-207 -60 -303 -308 -188 -489 63 -100 160 -151 283 -151
150 0 254 64 312 191 40 86 30 245 -19 309 -38 49 -101 102 -143 123 -59 28
-177 36 -245 17z m195 -142 c61 -36 86 -74 100 -155 15 -85 -60 -197 -147
-221 -155 -41 -296 127 -233 277 18 44 86 112 117 118 53 12 64 13 93 8 17 -2
48 -15 70 -27z"/>
<path d="M3074 1710 c-18 -4 -45 -17 -62 -29 -34 -24 -42 -26 -42 -10 0 19
-33 38 -67 39 -22 0 -37 -8 -52 -26 -20 -26 -21 -39 -21 -294 l0 -267 25 -27
c28 -31 64 -33 96 -7 23 19 24 24 29 218 3 109 9 205 13 214 13 26 59 55 99
63 58 11 109 -8 136 -49 21 -33 22 -45 22 -224 0 -175 1 -190 21 -215 11 -14
29 -26 40 -26 23 0 61 18 71 34 4 6 8 98 8 203 l0 193 35 39 c63 70 162 66
203 -8 20 -36 22 -52 22 -225 0 -185 0 -187 25 -211 13 -14 31 -25 40 -25 20
0 57 19 67 34 4 6 8 109 8 229 0 252 -3 265 -82 327 -90 72 -216 75 -320 9
l-48 -31 -35 26 c-65 50 -148 66 -231 46z"/>
<path d="M7037 1699 c-55 -9 -88 -37 -121 -103 -22 -42 -30 -76 -34 -131 -9
-139 34 -233 133 -295 125 -77 158 -126 135 -195 -15 -44 -44 -65 -91 -65 -70
0 -120 66 -135 179 -8 63 -23 62 -47 -5 -40 -112 -2 -279 79 -340 34 -26 45
-29 114 -29 68 0 81 3 113 27 20 16 48 53 63 85 24 48 29 73 32 154 7 171 -38
257 -178 339 -78 46 -100 74 -100 130 0 46 34 90 69 90 24 0 72 -39 90 -74 8
-14 22 -26 31 -26 21 0 50 61 56 119 5 40 2 50 -21 74 -53 56 -118 79 -188 66z"/>
<path d="M8327 1698 c-32 -4 -77 -16 -101 -27 -43 -18 -44 -20 -54 -82 -18
-109 -24 -177 -17 -189 4 -7 34 15 82 61 53 52 77 69 85 61 8 -8 6 -60 -7
-184 -19 -196 -19 -559 1 -592 9 -15 24 -19 74 -20 43 -2 64 2 67 11 3 7 -3
75 -12 150 -20 156 -23 475 -6 562 19 93 41 99 92 24 17 -25 35 -41 39 -36 14
14 40 115 40 153 0 40 -14 57 -68 84 -43 22 -143 33 -215 24z"/>
<path d="M9377 1692 c-19 -21 -23 -92 -7 -123 15 -26 75 -26 90 0 17 33 12
106 -8 124 -24 22 -55 21 -75 -1z"/>
<path d="M9555 1688 c-10 -31 -19 -791 -10 -884 l7 -74 60 0 61 0 -6 53 c-19
170 -20 206 -3 232 9 14 21 25 26 25 23 0 67 -189 70 -302 0 -5 27 -8 60 -8
l60 0 0 66 c0 114 -36 237 -92 317 -23 32 -21 45 18 137 20 50 27 83 28 140
l1 75 -45 -1 c-44 -1 -45 -2 -53 -40 -22 -108 -40 -173 -59 -214 l-22 -45 -7
35 c-4 18 -3 120 3 224 6 105 11 211 12 236 l1 45 -51 3 c-46 3 -52 1 -59 -20z"/>
<path d="M10913 1683 c-9 -30 -11 -938 -3 -946 3 -3 30 -7 60 -8 l55 -4 -1 35
c-1 19 -7 133 -14 252 -13 210 -8 386 17 641 l5 57 -56 0 c-52 0 -56 -2 -63
-27z"/>
<path d="M13122 1676 c-24 -28 -33 -50 -43 -111 -12 -75 -27 -105 -54 -105
-18 0 -25 -23 -25 -85 0 -52 1 -54 28 -52 l27 2 6 -300 c3 -165 6 -300 7 -300
69 0 113 3 118 8 4 3 1 79 -5 169 -14 202 -17 376 -7 406 6 17 15 22 42 22
l34 0 0 59 c0 62 -7 73 -44 75 -14 1 -22 9 -24 23 -4 30 15 64 35 61 21 -4 35
47 31 110 l-3 47 -46 3 c-42 3 -49 0 -77 -32z"/>
<path d="M13844 1681 c-109 -67 -174 -252 -174 -500 0 -197 35 -329 108 -413
42 -47 80 -61 147 -56 63 5 102 34 136 100 32 62 45 244 19 271 -4 5 -15 -15
-24 -45 -27 -95 -86 -136 -151 -105 -45 21 -82 87 -101 178 -39 183 31 419
125 419 38 0 50 -11 64 -61 12 -38 17 -44 38 -41 41 4 59 37 59 106 0 71 -22
115 -72 146 -44 26 -131 27 -174 1z"/>
<path d="M12493 1682 c-35 -2 -53 -8 -57 -18 -27 -71 -36 -874 -10 -919 11
-17 20 -20 79 -17 l67 4 -6 46 c-32 247 -37 554 -12 747 9 66 16 127 16 136 0
21 -13 25 -77 21z"/>
<path d="M7429 1607 c-24 -16 -35 -33 -41 -62 -15 -76 -18 -84 -31 -79 -7 2
-21 -2 -32 -10 -15 -11 -19 -26 -20 -72 0 -58 0 -59 28 -56 22 2 27 -1 27 -20
-1 -169 10 -540 17 -563 13 -42 41 -43 88 -2 l39 34 -18 99 c-18 104 -26 390
-12 432 6 17 15 22 42 22 l34 0 0 59 c0 62 -8 76 -45 76 -22 0 -21 -3 -9 108
6 52 5 57 -13 57 -11 0 -35 -10 -54 -23z"/>
<path d="M15019 1607 c-24 -16 -35 -33 -41 -62 -15 -76 -18 -84 -31 -79 -7 2
-21 -2 -32 -10 -15 -11 -19 -26 -20 -72 0 -58 0 -59 28 -56 22 2 27 -1 27 -20
-1 -169 10 -540 17 -563 13 -42 41 -43 88 -2 l39 34 -18 99 c-18 104 -26 390
-12 432 6 17 15 22 42 22 l34 0 0 59 c0 62 -8 76 -45 76 -22 0 -21 -3 -9 108
6 52 5 57 -13 57 -11 0 -35 -10 -54 -23z"/>
<path d="M12667 1495 c-9 -9 -20 -32 -24 -53 -10 -48 -10 -698 0 -708 6 -7
107 -7 114 0 1 1 -2 40 -7 87 -14 116 -14 356 -1 406 13 46 46 93 66 93 8 0
22 -14 31 -32 22 -42 21 -269 -1 -425 -10 -62 -15 -119 -12 -126 5 -13 102
-15 115 -3 13 14 21 124 21 320 1 311 -21 397 -103 404 -23 2 -47 -3 -64 -14
-33 -22 -37 -19 -37 26 0 34 -1 35 -41 38 -28 2 -47 -2 -57 -13z"/>
<path d="M14557 1495 c-9 -9 -20 -32 -24 -53 -10 -48 -10 -698 0 -708 6 -7
107 -7 114 0 1 1 -2 40 -7 87 -14 116 -14 356 -1 406 13 46 46 93 66 93 8 0
22 -14 31 -32 22 -42 21 -269 -1 -425 -10 -62 -15 -119 -12 -126 5 -13 102
-15 115 -3 13 14 21 124 21 320 1 311 -21 397 -103 404 -23 2 -47 -3 -64 -14
-33 -22 -37 -19 -37 26 0 34 -1 35 -41 38 -28 2 -47 -2 -57 -13z"/>
<path d="M9921 1469 c-12 -35 -14 -676 -2 -719 6 -23 12 -25 56 -24 l50 2 -1
58 c-8 420 -4 483 36 519 65 59 90 -128 60 -438 -8 -75 -9 -132 -4 -136 5 -5
32 -6 59 -2 l50 6 6 265 c7 283 13 324 51 318 69 -10 88 -200 53 -519 l-8 -67
49 -4 c35 -3 52 -1 61 10 19 23 26 130 20 354 -5 231 -16 292 -61 341 -32 34
-95 37 -133 7 -14 -11 -33 -20 -43 -20 -9 0 -25 9 -35 20 -12 13 -31 20 -55
20 -22 0 -48 -8 -63 -20 -35 -27 -38 -26 -35 18 l3 37 -51 3 c-50 3 -52 2 -63
-29z"/>
<path d="M7659 1440 c-59 -61 -81 -143 -87 -316 -5 -161 5 -225 49 -313 35
-69 77 -101 134 -101 58 0 100 32 135 103 42 86 53 159 47 317 -5 166 -28 250
-86 310 -36 38 -41 40 -96 40 -55 0 -60 -2 -96 -40z m136 -124 c32 -32 46 -91
46 -190 1 -94 -12 -152 -42 -190 -40 -51 -96 -20 -120 67 -14 53 -13 193 1
247 12 46 49 90 75 90 9 0 27 -11 40 -24z"/>
<path d="M8654 1447 c-29 -26 -37 -42 -41 -79 -6 -55 1 -90 23 -112 23 -24 30
-20 48 29 26 67 81 73 112 13 24 -46 12 -72 -41 -92 -27 -11 -60 -35 -85 -63
-99 -113 -94 -322 9 -390 29 -20 47 -23 130 -23 53 0 101 4 107 8 18 11 0 564
-19 619 -34 92 -73 123 -157 123 -43 0 -55 -5 -86 -33z m158 -392 c12 -41 2
-156 -16 -173 -18 -18 -52 -7 -72 24 -21 31 -20 99 2 132 38 59 72 65 86 17z"/>
<path d="M9067 1462 c-15 -9 -39 -39 -52 -66 -20 -41 -25 -65 -25 -130 0 -109
21 -152 106 -212 35 -25 69 -54 74 -64 26 -49 -3 -120 -50 -120 -33 0 -80 51
-100 110 -10 30 -22 54 -27 53 -22 -5 -30 -142 -12 -208 6 -22 28 -56 49 -77
34 -35 42 -38 92 -38 103 0 166 75 176 209 8 123 -19 173 -162 297 -41 36 -47
46 -44 75 2 26 9 36 30 43 23 8 32 6 53 -14 14 -13 25 -29 25 -36 0 -6 7 -18
16 -25 20 -16 35 1 61 69 16 42 16 46 -2 78 -10 19 -33 43 -50 54 -41 25 -119
26 -158 2z"/>
<path d="M10564 1447 c-29 -26 -37 -42 -41 -79 -6 -55 1 -90 23 -112 23 -24
30 -20 48 29 26 67 81 73 112 13 24 -46 12 -72 -41 -92 -27 -11 -60 -35 -85
-63 -99 -113 -94 -322 9 -390 29 -20 47 -23 130 -23 53 0 101 4 107 8 18 11 0
564 -19 619 -34 92 -73 123 -157 123 -43 0 -55 -5 -86 -33z m158 -392 c12 -41
2 -156 -16 -173 -18 -18 -52 -7 -72 24 -21 31 -20 99 2 132 38 59 72 65 86 17z"/>
<path d="M11124 1447 c-29 -26 -37 -42 -41 -79 -6 -55 1 -90 23 -112 23 -24
30 -20 48 29 26 67 81 73 112 13 24 -46 12 -72 -41 -92 -27 -11 -60 -35 -85
-63 -99 -113 -94 -322 9 -390 29 -20 47 -23 130 -23 53 0 101 4 107 8 18 11 0
564 -19 619 -34 92 -73 123 -157 123 -43 0 -55 -5 -86 -33z m158 -392 c12 -41
2 -156 -16 -173 -18 -18 -52 -7 -72 24 -21 31 -20 99 2 132 38 59 72 65 86 17z"/>
<path d="M11864 1447 c-29 -26 -37 -42 -41 -79 -6 -55 1 -90 23 -112 23 -24
30 -20 48 29 26 67 81 73 112 13 24 -46 12 -72 -41 -92 -27 -11 -60 -35 -85
-63 -99 -113 -94 -322 9 -390 29 -20 47 -23 130 -23 53 0 101 4 107 8 18 11 0
564 -19 619 -34 92 -73 123 -157 123 -43 0 -55 -5 -86 -33z m158 -392 c12 -41
2 -156 -16 -173 -18 -18 -52 -7 -72 24 -21 31 -20 99 2 132 38 59 72 65 86 17z"/>
<path d="M13359 1440 c-59 -61 -81 -143 -87 -316 -5 -161 5 -225 49 -313 35
-69 77 -101 134 -101 58 0 100 32 135 103 42 86 53 159 47 317 -5 166 -28 250
-86 310 -36 38 -41 40 -96 40 -55 0 -60 -2 -96 -40z m136 -124 c32 -32 46 -91
46 -190 1 -94 -12 -152 -42 -190 -40 -51 -96 -20 -120 67 -14 53 -13 193 1
247 12 46 49 90 75 90 9 0 27 -11 40 -24z"/>
<path d="M14249 1465 c-29 -16 -68 -71 -91 -130 -28 -70 -41 -188 -36 -313 10
-217 67 -312 187 -312 96 0 151 82 151 227 0 69 -13 97 -26 56 -19 -59 -41
-96 -65 -109 -40 -20 -63 -17 -98 12 -23 19 -31 34 -31 59 0 37 13 50 116 114
81 51 104 96 104 207 -1 134 -49 204 -139 204 -25 -1 -58 -7 -72 -15z m95
-147 c21 -30 20 -81 -1 -100 -18 -15 -97 -58 -108 -58 -11 0 -4 72 10 107 31
73 70 93 99 51z"/>
<path d="M15335 1450 c-34 -36 -43 -37 -47 -7 -3 19 -9 22 -53 22 l-50 0 -3
-338 c-1 -186 2 -353 6 -370 8 -32 9 -32 63 -28 30 1 56 5 58 6 1 2 -2 43 -9
91 -16 124 -15 379 1 428 17 48 41 65 63 47 9 -8 16 -24 16 -37 0 -18 6 -24
21 -24 31 0 63 79 57 141 -10 98 -66 129 -123 69z"/>
<path d="M15589 1465 c-29 -16 -68 -71 -91 -130 -28 -70 -41 -188 -36 -313 10
-217 67 -312 187 -312 96 0 151 82 151 227 0 69 -13 97 -26 56 -19 -59 -41
-96 -65 -109 -40 -20 -63 -17 -98 12 -23 19 -31 34 -31 59 0 37 13 50 116 114
81 51 104 96 104 207 -1 134 -49 204 -139 204 -25 -1 -58 -7 -72 -15z m95
-147 c21 -30 20 -81 -1 -100 -18 -15 -97 -58 -108 -58 -11 0 -4 72 10 107 31
73 70 93 99 51z"/>
<path d="M9364 1458 c-13 -19 -17 -693 -5 -716 7 -14 20 -18 61 -16 28 1 53 4
57 7 3 4 0 71 -7 149 -6 79 -12 241 -12 361 l1 217 -29 0 c-16 0 -35 3 -43 6
-8 3 -19 -1 -23 -8z"/>
<path d="M11488 1462 l-48 -3 0 -92 c0 -127 21 -216 74 -320 25 -48 43 -94 40
-101 -6 -16 -46 -33 -84 -38 -25 -3 -25 -5 -28 -100 l-3 -98 31 0 c133 0 278
266 298 545 4 50 5 115 4 147 l-4 56 -41 5 c-23 2 -46 1 -50 -3 -4 -4 -9 -70
-11 -146 -2 -76 -9 -157 -16 -179 l-12 -39 -19 22 c-39 50 -62 133 -64 235 -1
54 -6 101 -11 105 -5 4 -30 6 -56 4z"/>
<path d="M2070 890 c-18 -18 -20 -33 -20 -156 l0 -135 -32 24 c-40 30 -120 57
-165 57 -19 0 -69 -12 -112 -26 -91 -30 -142 -72 -181 -150 -22 -43 -25 -61
-25 -159 0 -103 2 -113 29 -160 62 -109 145 -158 271 -159 84 -1 140 18 193
67 21 20 22 20 22 1 0 -37 28 -64 67 -64 64 0 62 -8 63 442 0 357 -2 409 -16
422 -22 22 -70 20 -94 -4z m-106 -377 c60 -42 88 -104 84 -179 -5 -76 -34
-123 -99 -159 -60 -32 -115 -32 -177 -1 -85 43 -123 126 -102 220 31 138 181
199 294 119z"/>
<path d="M644 859 c-18 -20 -19 -43 -22 -393 -2 -356 -2 -372 18 -404 28 -46
79 -46 104 1 16 29 17 68 14 410 -3 361 -4 379 -22 393 -28 20 -70 17 -92 -7z"/>
<path d="M1137 669 c-20 -5 -55 -18 -77 -29 -47 -24 -50 -24 -50 -5 0 33 -76
47 -104 19 -14 -13 -16 -55 -16 -302 1 -322 2 -327 66 -325 59 2 63 15 64 218
0 196 7 228 60 267 37 27 119 34 159 14 64 -34 71 -59 71 -267 0 -172 2 -188
20 -209 27 -32 77 -31 102 0 18 23 19 39 16 245 -3 235 -6 250 -60 308 -28 29
-55 44 -116 63 -52 15 -79 16 -135 3z"/>
<path d="M2453 653 c-77 -30 -159 -114 -186 -189 -18 -53 -24 -198 -8 -209 5
-3 12 -18 16 -33 3 -15 17 -41 31 -57 14 -17 34 -40 44 -52 10 -13 46 -38 81
-55 58 -30 72 -33 154 -32 107 0 159 19 231 86 142 130 140 350 -4 479 -98 89
-234 112 -359 62z m212 -123 c54 -26 67 -37 86 -77 51 -105 28 -211 -59 -274
-41 -30 -55 -34 -109 -34 -52 0 -68 5 -105 30 -56 39 -88 102 -88 172 0 93 46
159 133 195 58 23 70 22 142 -12z"/>
<path d="M3255 671 c-16 -4 -50 -18 -75 -30 l-45 -22 -18 26 c-24 32 -68 33
-97 3 -19 -21 -20 -34 -20 -297 1 -262 2 -277 21 -300 26 -32 75 -33 101 -2
16 21 18 43 18 197 0 237 15 272 128 290 60 9 108 -11 137 -57 24 -37 25 -44
25 -223 0 -164 2 -186 18 -207 26 -31 78 -31 104 1 18 23 19 39 16 246 l-3
222 -38 55 c-33 48 -48 60 -95 77 -65 25 -133 33 -177 21z"/>
<path d="M3839 659 c-75 -26 -133 -78 -172 -153 -28 -55 -31 -70 -32 -151 0
-79 4 -98 28 -149 34 -70 81 -117 157 -153 49 -24 66 -27 155 -26 86 1 107 5
151 26 62 31 94 69 94 112 0 33 -25 65 -52 65 -8 0 -50 -18 -92 -40 -92 -48
-137 -52 -206 -14 -42 23 -80 72 -80 104 0 5 93 10 211 12 l210 3 19 25 c55
72 -14 257 -117 314 -91 51 -178 58 -274 25z m177 -123 c42 -19 54 -31 67 -65
10 -23 17 -44 17 -46 0 -3 -70 -5 -155 -5 -168 0 -168 0 -143 54 17 39 90 84
138 85 14 0 48 -10 76 -23z"/>
<path d="M4393 654 c-105 -51 -141 -165 -82 -260 23 -37 95 -76 194 -104 70
-20 110 -42 128 -72 8 -11 4 -23 -11 -45 -37 -52 -130 -51 -223 2 -73 41 -129
31 -129 -25 0 -97 260 -163 394 -100 97 46 135 161 84 252 -18 31 -38 48 -88
73 -36 18 -83 38 -104 45 -77 25 -121 54 -124 81 -7 61 91 85 173 41 85 -47
145 -38 145 22 0 43 -30 70 -105 96 -87 29 -185 26 -252 -6z"/>
<path d="M5224 662 c-75 -25 -95 -41 -97 -81 -2 -28 3 -38 24 -50 24 -13 32
-13 93 7 132 44 214 21 247 -69 l17 -46 -56 9 c-69 12 -200 2 -261 -19 -74
-25 -120 -93 -121 -180 0 -91 28 -136 115 -180 91 -47 231 -33 303 31 21 19
22 19 22 0 1 -33 25 -54 62 -54 64 0 68 14 68 213 0 319 -29 378 -210 423 -72
17 -143 16 -206 -4z m264 -343 c16 -6 22 -17 22 -39 0 -35 -40 -103 -72 -124
-62 -39 -161 -31 -209 16 -27 27 -30 37 -26 70 6 46 43 80 97 89 41 8 155 0
188 -12z"/>
<path d="M4881 651 c-20 -20 -21 -30 -21 -299 0 -312 2 -322 65 -322 63 0 65
10 65 320 0 301 -1 305 -56 316 -25 5 -37 1 -53 -15z"/>
</g>
</svg>
